<svg width="72" height="19" viewBox="0 0 72 19" fill="none" xmlns="http://www.w3.org/2000/svg">
<path d="M10.592 4.57173V1.40373H0.56V18.2037H3.872V11.7237H10.4V8.55574H3.872V4.57173H10.592ZM20.7813 6.20374V12.6837C20.7813 14.7717 19.6533 15.6597 18.1413 15.6597C16.7493 15.6597 15.7653 14.8197 15.7653 13.1877V6.20374H12.6693V13.5717C12.6693 16.7637 14.6613 18.5397 17.2053 18.5397C18.8133 18.5397 20.0613 17.9397 20.7813 16.8597V18.2037H23.8773V6.20374H20.7813ZM33.3849 5.86774C31.7769 5.86774 30.5289 6.46773 29.8089 7.54773V6.20374H26.7129V18.2037H29.8089V11.7237C29.8089 9.63573 30.9369 8.74773 32.4489 8.74773C33.8409 8.74773 34.8249 9.58773 34.8249 11.2197V18.2037H37.9209V10.8357C37.9209 7.64373 35.9289 5.86774 33.3849 5.86774ZM42.1004 4.76374C43.1564 4.76374 44.0204 3.89973 44.0204 2.86773C44.0204 1.83573 43.1564 0.947734 42.1004 0.947734C41.0684 0.947734 40.2044 1.83573 40.2044 2.86773C40.2044 3.89973 41.0684 4.76374 42.1004 4.76374ZM40.5644 18.2037H43.6604V6.20374H40.5644V18.2037ZM49.5901 8.26773V6.20374H46.4941V18.2037H49.5901V12.4677C49.5901 9.94774 51.6301 9.22774 53.2381 9.41973V5.96373C51.7261 5.96373 50.2141 6.63573 49.5901 8.26773ZM60.3155 18.5397C63.8435 18.5397 66.6755 15.7797 66.6755 12.2037C66.6755 8.62773 63.8435 5.86774 60.3155 5.86774C56.7875 5.86774 53.9795 8.62773 53.9795 12.2037C53.9795 15.7797 56.7875 18.5397 60.3155 18.5397ZM60.3155 15.5157C58.4915 15.5157 57.0755 14.1477 57.0755 12.2037C57.0755 10.2597 58.4915 8.89174 60.3155 8.89174C62.1635 8.89174 63.5795 10.2597 63.5795 12.2037C63.5795 14.1477 62.1635 15.5157 60.3155 15.5157ZM69.6926 18.5157C70.8206 18.5157 71.7326 17.6037 71.7326 16.4757C71.7326 15.3477 70.8206 14.4357 69.6926 14.4357C68.5646 14.4357 67.6526 15.3477 67.6526 16.4757C67.6526 17.6037 68.5646 18.5157 69.6926 18.5157Z" fill="#fff"/>
</svg>
